<?xml version="1.0" encoding="utf-8"?>
<!-- Generator: Adobe Illustrator 16.0.4, SVG Export Plug-In . SVG Version: 6.00 Build 0)  -->
<!DOCTYPE svg PUBLIC "-//W3C//DTD SVG 1.1//EN" "http://www.w3.org/Graphics/SVG/1.1/DTD/svg11.dtd">
<svg version="1.1" id="Layer_1" xmlns="http://www.w3.org/2000/svg" xmlns:xlink="http://www.w3.org/1999/xlink" x="0px" y="0px"
	 width="612px" height="792px" viewBox="0 0 612 792" enable-background="new 0 0 612 792" xml:space="preserve">
<g>
	<path fill="#BABABA" d="M306,624.135L111.066,429.207C80.423,400.749,62.858,360.51,62.858,318.68
		c0-83.165,67.663-150.821,150.828-150.821c33.984,0,66.053,11.053,92.314,31.5c26.255-20.441,58.33-31.5,92.314-31.5
		c83.164,0,150.827,67.657,150.827,150.821c0,41.824-17.564,82.069-48.214,110.527L306,624.135z M213.686,232.872
		c-47.314,0-85.809,38.495-85.809,85.808c0,23.936,10.11,46.959,27.736,63.177l0.979,0.937L306,532.207l149.885-149.892l0.508-0.459
		c17.626-16.212,27.736-39.241,27.736-63.177c0-47.32-38.495-85.808-85.814-85.808c-23.642,0-45.662,9.406-61.996,26.487
		c-1.726,1.793-3.385,3.696-4.963,5.655L306,296.636l-25.361-31.622c-1.567-1.958-3.231-3.855-4.933-5.637
		C259.347,242.271,237.328,232.872,213.686,232.872z"/>
</g>
</svg>
